<?xml version="1.0" encoding="UTF-8" standalone="no"?>
<!-- Uploaded to: SVG Repo, www.svgrepo.com, Generator: SVG Repo Mixer Tools -->

<svg
   height="800px"
   width="800px"
   version="1.1"
   id="Layer_1"
   viewBox="0 0 291.32 291.32"
   xml:space="preserve"
   sodipodi:docname="githubedit.svg"
   inkscape:version="1.3 (0e150ed6c4, 2023-07-21)"
   xmlns:inkscape="http://www.inkscape.org/namespaces/inkscape"
   xmlns:sodipodi="http://sodipodi.sourceforge.net/DTD/sodipodi-0.dtd"
   xmlns="http://www.w3.org/2000/svg"
   xmlns:svg="http://www.w3.org/2000/svg"><defs
   id="defs1" /><sodipodi:namedview
   id="namedview1"
   pagecolor="#ffffff"
   bordercolor="#000000"
   borderopacity="0.25"
   inkscape:showpageshadow="2"
   inkscape:pageopacity="0.0"
   inkscape:pagecheckerboard="0"
   inkscape:deskcolor="#d1d1d1"
   inkscape:zoom="0.738125"
   inkscape:cx="338.01863"
   inkscape:cy="432.17612"
   inkscape:window-width="1350"
   inkscape:window-height="1212"
   inkscape:window-x="2325"
   inkscape:window-y="128"
   inkscape:window-maximized="0"
   inkscape:current-layer="Layer_1" />&#10;<g
   id="g1"
   style="fill:#ffffff;fill-opacity:1">&#10;	<path
   style="fill:#ffffff;fill-opacity:1"
   d="M145.66,0C65.219,0,0,65.219,0,145.66c0,80.45,65.219,145.66,145.66,145.66   s145.66-65.21,145.66-145.66C291.319,65.219,226.1,0,145.66,0z M186.462,256.625c-0.838-11.398-1.775-25.518-1.83-31.235   c-0.364-4.388-0.838-15.549-11.434-22.677c42.068-3.523,62.087-26.774,63.526-57.499c1.202-17.497-5.754-32.883-18.107-45.3   c0.628-13.282-0.401-29.023-1.256-35.941c-9.486-2.731-31.608,8.949-37.79,13.947c-13.037-5.062-44.945-6.837-64.336,0   c-13.747-9.668-29.396-15.64-37.926-13.974c-7.875,17.452-2.813,33.948-1.275,35.914c-10.142,9.268-24.289,20.675-20.447,44.572   c6.163,35.04,30.816,53.94,70.508,58.564c-8.466,1.73-9.896,8.048-10.606,10.788c-26.656,10.997-34.275-6.791-37.644-11.425   c-11.188-13.847-21.23-9.832-21.849-9.614c-0.601,0.218-1.056,1.092-0.992,1.511c0.564,2.986,6.655,6.018,6.955,6.263   c8.257,6.154,11.316,17.27,13.2,20.438c11.844,19.473,39.374,11.398,39.638,11.562c0.018,1.702-0.191,16.032-0.355,27.184   C64.245,245.992,27.311,200.2,27.311,145.66c0-65.365,52.984-118.348,118.348-118.348S264.008,80.295,264.008,145.66   C264.008,196.668,231.69,239.992,186.462,256.625z"
   id="path1" />&#10;</g>&#10;<path
   style="fill:#000000;fill-opacity:1;stroke-width:1.35478"
   d="m 298.0525,707.25613 c -21.05425,-7.25068 -27.53848,-9.98227 -45.81601,-19.3007 C 94.3227,607.44615 30.677122,414.33521 109.89514,256.06884 152.6977,170.55537 227.967,109.52275 319.58321,86.041852 c 30.20342,-7.741028 44.9338,-9.469602 80.75549,-9.476458 33.03035,-0.0063 45.98895,1.340832 73.15834,7.605409 33.21818,7.659277 76.81741,26.444457 104.99576,45.238527 37.82885,25.23063 73.06725,61.435 96.89313,99.54918 16.72266,26.75117 33.3881,66.94628 40.44327,97.54445 6.18863,26.84005 7.57049,40.15603 7.59193,73.15834 0.0233,35.81825 -1.68749,50.41762 -9.46298,80.75549 -22.443,87.56657 -81.50969,162.47893 -162.03105,205.49863 -15.05721,8.04455 -37.64075,17.8149 -38.70893,16.74672 -0.7308,-0.7308 -3.83721,-44.61318 -5.19347,-73.36493 -0.49209,-10.43184 -1.74746,-23.23455 -2.78971,-28.45047 -2.78933,-13.95923 -9.82282,-27.19558 -19.20784,-36.14739 l -7.89728,-7.53272 13.54304,-1.64139 c 44.54762,-5.39908 84.95934,-22.73066 111.28178,-47.72595 30.54152,-29.00165 45.52097,-63.88219 47.63926,-110.93085 1.9208,-42.66266 -12.46576,-82.27777 -41.30138,-113.72816 l -8.08275,-8.81569 -0.84534,-41.31132 c -0.46494,-22.72123 -1.22559,-45.06681 -1.69034,-49.65684 -0.82065,-8.10499 -0.97143,-8.36924 -5.23153,-9.16844 -6.54061,-1.22703 -22.60283,1.45631 -36.50314,6.09817 -14.82437,4.95045 -41.20624,17.64718 -54.51275,26.23521 l -9.68166,6.24854 -9.96271,-2.70502 c -43.7082,-11.86738 -111.22158,-11.85405 -155.60644,0.0307 l -10.16534,2.72194 -16.25295,-9.79035 c -31.08874,-18.72703 -60.05745,-28.87535 -79.92781,-28.0003 l -9.48349,0.41763 -3.7637,10.75748 c -9.14627,26.1421 -10.15876,58.37902 -2.53772,80.79973 l 2.37489,6.98682 -15.25532,14.90686 c -30.53167,29.8343 -41.5629,52.78809 -41.51272,86.37976 0.0372,24.92834 6.97432,52.49557 19.58569,77.83148 27.35337,54.95222 79.83291,89.26164 156.16912,102.09827 l 14.80622,2.48981 -6.46056,3.12751 c -6.71231,3.24937 -12.73925,10.17459 -15.62524,17.95406 -2.84225,7.66157 -3.44378,8.25645 -10.99775,10.87591 -18.23298,6.3226 -35.84057,7.87716 -49.41953,4.36323 -15.94893,-4.12724 -27.10662,-13.22026 -40.50448,-33.00933 -13.7858,-20.36208 -31.85715,-32.54561 -49.91415,-33.65166 -12.007,-0.73546 -17.23265,0.97603 -17.23265,5.64399 0,4.46072 4.16756,8.94148 15.53209,16.69934 12.96619,8.85121 20.74338,19.14699 32.50146,43.02682 8.81838,17.90949 11.10855,21.41423 18.85194,28.84981 9.54316,9.16382 20.13605,14.89506 34.72332,18.7869 10.51071,2.80424 40.9147,3.20762 53.40467,0.70853 4.41066,-0.88253 8.18386,-1.44014 8.38485,-1.23913 0.20101,0.20101 -0.0546,16.60869 -0.56807,36.46152 l -0.93356,36.09607 z"
   id="path2"
   transform="scale(0.36415)" /></svg>
